# xmcd
#
# Track frame offsets:
#	150
#	13220
#	27430
#	42858
#	61153
#	75423
#	91143
#	105663
#	122493
#	136110
#	148910
#	160990
#	177378
#	190263
#
# Disc length: 2758
#
# Revision: 4
# Processed by: cddbd v1.5.1PL0 Copyright (c) Steve Scherf et al.
# Submitted via: audiograbber 1.81.03
# Normalized: r3:DSETVAR1
#
DISCID=b40ac40e
DTITLE=Various Artist - Country Hot Hits Volume 63
DYEAR=1997
DGENRE=Country
TTITLE0=Patty Loveless - She Drew A Broken Heart
TTITLE1=Alan Jackson - Everything I Love
TTITLE2=Deana Carter - We Danced Anyway
TTITLE3=Trace Adkins - This Ain't No Thinkin' Thing
TTITLE4=Terri Clark - Emotional Girl
TTITLE5=Tracy Byrd - Don't Take Her She's All I Got
TTITLE6=Diamond Rio - Holdin'
TTITLE7=Kathy Mattea - 455 Rocket
TTITLE8=Jeff Wood - You Just Get One
TTITLE9=Regina Regina - More Than I Wanted To Know
TTITLE10=Gary Allan - Forever And A Day
TTITLE11=Ricochet - Ease My Troubled Mind
TTITLE12=Wade Hayes - It's Over My Head
TTITLE13=Billy Ray Cyrus - Three Little Words
EXTD=Distributed for jukeboxes and professional DJs only.
EXTT0=
EXTT1=
EXTT2=
EXTT3=
EXTT4=
EXTT5=
EXTT6=
EXTT7=
EXTT8=
EXTT9=
EXTT10=
EXTT11=
EXTT12=
EXTT13=
PLAYORDER=
